<svg xmlns="http://www.w3.org/2000/svg" width="181.573" height="67.93" viewBox="0 0 181.573 67.93">
  <g id="Group_181" data-name="Group 181" transform="translate(-1279.183 -45.524)">
    <g id="Group_180" data-name="Group 180" transform="translate(1279.183 45.524)">
      <g id="Nav_Base" data-name="Nav +  Base" transform="translate(0 0)">
        <g id="PopRev_Placeholder_Logo" data-name="PopRev Placeholder Logo" transform="translate(0)">
          <path id="Path_1154" data-name="Path 1154" d="M22.626-95.588H11.78v28.262h4.087V-77.6h6.645c5.805,0,9.663-3.666,9.663-9.128C32.174-92.036,28.355-95.588,22.626-95.588Zm-.5,14.627H15.867V-92.227H22.13c3.514,0,5.805,2.253,5.805,5.614C27.935-83.214,25.72-80.961,22.13-80.961ZM44.854-66.944c6.34,0,10.617-4.239,10.617-10.579S51.194-88.1,44.854-88.1C38.476-88.1,34.2-83.863,34.2-77.523S38.476-66.944,44.854-66.944Zm0-3.361c-3.972,0-6.607-2.9-6.607-7.218s2.635-7.218,6.607-7.218c3.934,0,6.569,2.9,6.569,7.218S48.788-70.305,44.854-70.305ZM71.015-88.1c-3.628,0-6.111,1.566-7.524,4.087l-.115-3.7H59.634v28.8h3.9v-12.03a8.091,8.091,0,0,0,7.486,4.01c5.576,0,9.739-4.277,9.739-10.656C80.754-83.9,76.591-88.1,71.015-88.1Zm-.917,17.8c-3.934,0-6.569-2.9-6.569-7.218s2.635-7.218,6.569-7.218c3.972,0,6.607,2.864,6.607,7.18C76.706-73.208,74.071-70.305,70.1-70.305Zm38.345,2.979-7.715-11.725a8.091,8.091,0,0,0,5.652-7.906c0-5.194-3.857-8.631-9.663-8.631H85.6v28.262h4.087v-11h6.951l7.027,11Zm-18.752-24.9h6.531c3.552,0,5.92,2.1,5.92,5.27s-2.444,5.27-6.149,5.27h-6.3Zm40.025,14.436c0-6.187-3.934-10.312-9.853-10.312-5.958,0-9.892,4.277-9.892,10.656,0,6.3,4.048,10.5,10.044,10.5a10.286,10.286,0,0,0,8.784-4.468l-2.979-1.6a7.217,7.217,0,0,1-5.843,2.979c-3.552,0-5.5-2.368-5.882-6.072H129.64A12.1,12.1,0,0,0,129.716-77.791Zm-9.853-7.218c3.361,0,5.5,2.33,5.843,6.225H114.1C114.439-82.641,116.5-85.009,119.863-85.009Zm19.631,17.683h3.934l12.566-29.966a32.93,32.93,0,0,0-7.983,9.571c-3.638,6.374-6.569,15.926-6.569,15.926L134.91-87.721h-4.277Z" transform="translate(-11.78 126.854)" fill="#fff" opacity="0.6"/>
          <path id="Fill_2" data-name="Fill 2" d="M3.793,7.586h0A3.793,3.793,0,1,1,7.586,3.793,3.8,3.8,0,0,1,3.793,7.586" transform="translate(141.958 45.936)" fill="#ffae00"/>
          <path id="Fill_3" data-name="Fill 3" d="M32.029,15.753A15.932,15.932,0,0,0,16.015,0h0A15.932,15.932,0,0,0,0,15.753V38.772s32.026-3.507,32.029-23.017v0" transform="translate(149.544)" fill="#ffae00"/>
        </g>
      </g>
    </g>
  </g>
</svg>
